<?xml version="1.0" standalone="no"?>
<!DOCTYPE svg PUBLIC "-//W3C//DTD SVG 1.1//EN" "http://www.w3.org/Graphics/SVG/1.1/DTD/svg11.dtd">
<svg width="322" height="322" version="1.1" xmlns="http://www.w3.org/2000/svg">
  <title>20 by 20 orthogonal maze</title>
  <desc>20 by 20 orthogonal maze generated by The Maze Generator Website (http://www.mazegenerator.se/).</desc>
  <g fill="none" stroke="#000000" stroke-width="2" stroke-linecap="square">
    <line x1="1" y1="1" x2="145" y2="1" />
    <line x1="161" y1="1" x2="321" y2="1" />
    <line x1="97" y1="17" x2="113" y2="17" />
    <line x1="145" y1="17" x2="177" y2="17" />
    <line x1="225" y1="17" x2="257" y2="17" />
    <line x1="289" y1="17" x2="305" y2="17" />
    <line x1="65" y1="33" x2="97" y2="33" />
    <line x1="113" y1="33" x2="145" y2="33" />
    <line x1="161" y1="33" x2="177" y2="33" />
    <line x1="193" y1="33" x2="225" y2="33" />
    <line x1="273" y1="33" x2="305" y2="33" />
    <line x1="1" y1="49" x2="81" y2="49" />
    <line x1="97" y1="49" x2="113" y2="49" />
    <line x1="129" y1="49" x2="145" y2="49" />
    <line x1="177" y1="49" x2="193" y2="49" />
    <line x1="257" y1="49" x2="273" y2="49" />
    <line x1="305" y1="49" x2="321" y2="49" />
    <line x1="33" y1="65" x2="49" y2="65" />
    <line x1="81" y1="65" x2="177" y2="65" />
    <line x1="193" y1="65" x2="257" y2="65" />
    <line x1="289" y1="65" x2="321" y2="65" />
    <line x1="17" y1="81" x2="81" y2="81" />
    <line x1="113" y1="81" x2="161" y2="81" />
    <line x1="177" y1="81" x2="193" y2="81" />
    <line x1="225" y1="81" x2="241" y2="81" />
    <line x1="81" y1="97" x2="113" y2="97" />
    <line x1="145" y1="97" x2="177" y2="97" />
    <line x1="209" y1="97" x2="225" y2="97" />
    <line x1="241" y1="97" x2="257" y2="97" />
    <line x1="273" y1="97" x2="305" y2="97" />
    <line x1="17" y1="113" x2="49" y2="113" />
    <line x1="81" y1="113" x2="97" y2="113" />
    <line x1="161" y1="113" x2="209" y2="113" />
    <line x1="225" y1="113" x2="241" y2="113" />
    <line x1="1" y1="129" x2="33" y2="129" />
    <line x1="97" y1="129" x2="113" y2="129" />
    <line x1="129" y1="129" x2="161" y2="129" />
    <line x1="193" y1="129" x2="209" y2="129" />
    <line x1="241" y1="129" x2="289" y2="129" />
    <line x1="17" y1="145" x2="65" y2="145" />
    <line x1="113" y1="145" x2="145" y2="145" />
    <line x1="177" y1="145" x2="193" y2="145" />
    <line x1="209" y1="145" x2="225" y2="145" />
    <line x1="273" y1="145" x2="305" y2="145" />
    <line x1="1" y1="161" x2="17" y2="161" />
    <line x1="33" y1="161" x2="129" y2="161" />
    <line x1="161" y1="161" x2="177" y2="161" />
    <line x1="193" y1="161" x2="209" y2="161" />
    <line x1="225" y1="161" x2="241" y2="161" />
    <line x1="257" y1="161" x2="289" y2="161" />
    <line x1="17" y1="177" x2="49" y2="177" />
    <line x1="65" y1="177" x2="97" y2="177" />
    <line x1="145" y1="177" x2="161" y2="177" />
    <line x1="177" y1="177" x2="193" y2="177" />
    <line x1="17" y1="193" x2="33" y2="193" />
    <line x1="49" y1="193" x2="65" y2="193" />
    <line x1="97" y1="193" x2="113" y2="193" />
    <line x1="161" y1="193" x2="177" y2="193" />
    <line x1="193" y1="193" x2="241" y2="193" />
    <line x1="273" y1="193" x2="321" y2="193" />
    <line x1="33" y1="209" x2="49" y2="209" />
    <line x1="81" y1="209" x2="129" y2="209" />
    <line x1="145" y1="209" x2="161" y2="209" />
    <line x1="177" y1="209" x2="209" y2="209" />
    <line x1="257" y1="209" x2="305" y2="209" />
    <line x1="17" y1="225" x2="97" y2="225" />
    <line x1="161" y1="225" x2="177" y2="225" />
    <line x1="209" y1="225" x2="273" y2="225" />
    <line x1="289" y1="225" x2="321" y2="225" />
    <line x1="1" y1="241" x2="65" y2="241" />
    <line x1="81" y1="241" x2="97" y2="241" />
    <line x1="177" y1="241" x2="209" y2="241" />
    <line x1="273" y1="241" x2="289" y2="241" />
    <line x1="17" y1="257" x2="33" y2="257" />
    <line x1="65" y1="257" x2="81" y2="257" />
    <line x1="113" y1="257" x2="177" y2="257" />
    <line x1="209" y1="257" x2="257" y2="257" />
    <line x1="273" y1="257" x2="305" y2="257" />
    <line x1="49" y1="273" x2="177" y2="273" />
    <line x1="193" y1="273" x2="209" y2="273" />
    <line x1="225" y1="273" x2="289" y2="273" />
    <line x1="305" y1="273" x2="321" y2="273" />
    <line x1="1" y1="289" x2="17" y2="289" />
    <line x1="81" y1="289" x2="97" y2="289" />
    <line x1="113" y1="289" x2="129" y2="289" />
    <line x1="145" y1="289" x2="161" y2="289" />
    <line x1="177" y1="289" x2="193" y2="289" />
    <line x1="225" y1="289" x2="273" y2="289" />
    <line x1="289" y1="289" x2="321" y2="289" />
    <line x1="97" y1="305" x2="113" y2="305" />
    <line x1="161" y1="305" x2="177" y2="305" />
    <line x1="209" y1="305" x2="241" y2="305" />
    <line x1="273" y1="305" x2="289" y2="305" />
    <line x1="1" y1="321" x2="161" y2="321" />
    <line x1="177" y1="321" x2="321" y2="321" />
    <line x1="1" y1="1" x2="1" y2="321" />
    <line x1="17" y1="1" x2="17" y2="33" />
    <line x1="17" y1="65" x2="17" y2="81" />
    <line x1="17" y1="97" x2="17" y2="113" />
    <line x1="17" y1="161" x2="17" y2="177" />
    <line x1="17" y1="193" x2="17" y2="225" />
    <line x1="17" y1="257" x2="17" y2="273" />
    <line x1="17" y1="289" x2="17" y2="305" />
    <line x1="33" y1="17" x2="33" y2="65" />
    <line x1="33" y1="81" x2="33" y2="97" />
    <line x1="33" y1="257" x2="33" y2="321" />
    <line x1="49" y1="1" x2="49" y2="33" />
    <line x1="49" y1="97" x2="49" y2="145" />
    <line x1="49" y1="177" x2="49" y2="209" />
    <line x1="49" y1="241" x2="49" y2="257" />
    <line x1="49" y1="273" x2="49" y2="305" />
    <line x1="65" y1="17" x2="65" y2="129" />
    <line x1="65" y1="145" x2="65" y2="177" />
    <line x1="65" y1="209" x2="65" y2="241" />
    <line x1="65" y1="273" x2="65" y2="305" />
    <line x1="81" y1="1" x2="81" y2="17" />
    <line x1="81" y1="81" x2="81" y2="97" />
    <line x1="81" y1="113" x2="81" y2="145" />
    <line x1="81" y1="177" x2="81" y2="209" />
    <line x1="81" y1="241" x2="81" y2="257" />
    <line x1="81" y1="289" x2="81" y2="305" />
    <line x1="97" y1="17" x2="97" y2="33" />
    <line x1="97" y1="49" x2="97" y2="81" />
    <line x1="97" y1="97" x2="97" y2="113" />
    <line x1="97" y1="145" x2="97" y2="161" />
    <line x1="97" y1="209" x2="97" y2="225" />
    <line x1="97" y1="241" x2="97" y2="289" />
    <line x1="97" y1="305" x2="97" y2="321" />
    <line x1="113" y1="33" x2="113" y2="49" />
    <line x1="113" y1="113" x2="113" y2="145" />
    <line x1="113" y1="161" x2="113" y2="193" />
    <line x1="113" y1="225" x2="113" y2="257" />
    <line x1="129" y1="17" x2="129" y2="33" />
    <line x1="129" y1="49" x2="129" y2="65" />
    <line x1="129" y1="81" x2="129" y2="129" />
    <line x1="129" y1="177" x2="129" y2="241" />
    <line x1="129" y1="289" x2="129" y2="321" />
    <line x1="145" y1="1" x2="145" y2="17" />
    <line x1="145" y1="97" x2="145" y2="113" />
    <line x1="145" y1="145" x2="145" y2="257" />
    <line x1="145" y1="273" x2="145" y2="289" />
    <line x1="145" y1="305" x2="145" y2="321" />
    <line x1="161" y1="33" x2="161" y2="65" />
    <line x1="161" y1="81" x2="161" y2="97" />
    <line x1="161" y1="113" x2="161" y2="161" />
    <line x1="161" y1="193" x2="161" y2="209" />
    <line x1="161" y1="225" x2="161" y2="241" />
    <line x1="161" y1="289" x2="161" y2="305" />
    <line x1="177" y1="17" x2="177" y2="33" />
    <line x1="177" y1="65" x2="177" y2="81" />
    <line x1="177" y1="129" x2="177" y2="145" />
    <line x1="177" y1="161" x2="177" y2="193" />
    <line x1="177" y1="209" x2="177" y2="225" />
    <line x1="177" y1="241" x2="177" y2="257" />
    <line x1="177" y1="273" x2="177" y2="289" />
    <line x1="193" y1="1" x2="193" y2="65" />
    <line x1="193" y1="81" x2="193" y2="145" />
    <line x1="193" y1="193" x2="193" y2="209" />
    <line x1="193" y1="225" x2="193" y2="241" />
    <line x1="193" y1="257" x2="193" y2="273" />
    <line x1="193" y1="289" x2="193" y2="321" />
    <line x1="209" y1="17" x2="209" y2="33" />
    <line x1="209" y1="49" x2="209" y2="97" />
    <line x1="209" y1="145" x2="209" y2="193" />
    <line x1="209" y1="209" x2="209" y2="225" />
    <line x1="209" y1="241" x2="209" y2="305" />
    <line x1="225" y1="33" x2="225" y2="49" />
    <line x1="225" y1="81" x2="225" y2="145" />
    <line x1="225" y1="161" x2="225" y2="177" />
    <line x1="225" y1="193" x2="225" y2="209" />
    <line x1="225" y1="225" x2="225" y2="241" />
    <line x1="241" y1="17" x2="241" y2="65" />
    <line x1="241" y1="129" x2="241" y2="145" />
    <line x1="241" y1="161" x2="241" y2="193" />
    <line x1="241" y1="209" x2="241" y2="225" />
    <line x1="241" y1="241" x2="241" y2="257" />
    <line x1="257" y1="17" x2="257" y2="33" />
    <line x1="257" y1="65" x2="257" y2="129" />
    <line x1="257" y1="145" x2="257" y2="209" />
    <line x1="257" y1="225" x2="257" y2="241" />
    <line x1="257" y1="257" x2="257" y2="273" />
    <line x1="257" y1="289" x2="257" y2="321" />
    <line x1="273" y1="17" x2="273" y2="33" />
    <line x1="273" y1="49" x2="273" y2="113" />
    <line x1="273" y1="177" x2="273" y2="193" />
    <line x1="289" y1="1" x2="289" y2="17" />
    <line x1="289" y1="33" x2="289" y2="81" />
    <line x1="289" y1="97" x2="289" y2="129" />
    <line x1="289" y1="161" x2="289" y2="177" />
    <line x1="289" y1="209" x2="289" y2="241" />
    <line x1="289" y1="257" x2="289" y2="273" />
    <line x1="289" y1="289" x2="289" y2="305" />
    <line x1="305" y1="81" x2="305" y2="97" />
    <line x1="305" y1="113" x2="305" y2="193" />
    <line x1="305" y1="241" x2="305" y2="257" />
    <line x1="305" y1="305" x2="305" y2="321" />
    <line x1="321" y1="1" x2="321" y2="321" />
  </g>
</svg>
